<?xml version="1.0" encoding="UTF-8" standalone="no"?>
<!DOCTYPE svg PUBLIC "-//W3C//DTD SVG 1.1//EN" "http://www.w3.org/Graphics/SVG/1.1/DTD/svg11.dtd">
<svg version="1.1" xmlns="http://www.w3.org/2000/svg" xmlns:xlink="http://www.w3.org/1999/xlink" preserveAspectRatio="xMidYMid meet" viewBox="0 0 640 640" width="640" height="640"><defs><path d="M51.68 58.2L314.63 58.2L314.63 102.66L51.68 102.66L51.68 58.2Z" id="d7r5Gj1vp"></path><path d="M51.68 58.2L98.44 58.2L98.44 398.2L51.68 398.2L51.68 58.2Z" id="b3GBwXXFH9"></path><path d="M129.88 402.8L51.68 402.8L51.68 357.18L129.88 357.18L129.88 402.8Z" id="k1KLTsctjX"></path><path d="M182.39 422.45L428.05 42.05L466.04 66.59L220.39 446.98L182.39 422.45Z" id="a1kY5224Of"></path><path d="M351.43 357.95L457.99 357.95L457.99 403.18L351.43 403.18L351.43 357.95Z" id="k3LPkCnXD"></path><path d="M412.76 260.59L458.76 260.59L458.76 403.18L412.76 403.18L412.76 260.59Z" id="d2x3s48d95"></path></defs><g><g><g><use xlink:href="#d7r5Gj1vp" opacity="1" fill="#ffffff" fill-opacity="1"></use></g><g><use xlink:href="#b3GBwXXFH9" opacity="1" fill="#ffffff" fill-opacity="1"></use></g><g><use xlink:href="#k1KLTsctjX" opacity="1" fill="#ffffff" fill-opacity="1"></use></g><g><use xlink:href="#a1kY5224Of" opacity="1" fill="#ffffff" fill-opacity="1"></use></g><g><use xlink:href="#k3LPkCnXD" opacity="1" fill="#ffffff" fill-opacity="1"></use></g><g><use xlink:href="#d2x3s48d95" opacity="1" fill="#ffffff" fill-opacity="1"></use></g></g></g></svg>