<?xml version="1.0" encoding="UTF-8" standalone="no"?>
<!DOCTYPE svg PUBLIC "-//W3C//DTD SVG 1.1//EN" "http://www.w3.org/Graphics/SVG/1.1/DTD/svg11.dtd">
<svg version="1.1" xmlns="http://www.w3.org/2000/svg" xmlns:xlink="http://www.w3.org/1999/xlink" preserveAspectRatio="xMidYMid meet" viewBox="0 0 640 640" width="640" height="640"><defs><path d="M51.68 58.2L314.63 58.2L314.63 102.66L51.68 102.66L51.68 58.2Z" id="a25jXexb"></path><path d="M51.68 58.2L98.44 58.2L98.44 398.2L51.68 398.2L51.68 58.2Z" id="e3JFlD7iHr"></path><path d="M129.88 402.03L51.68 402.03L51.68 356.41L129.88 356.41L129.88 402.03Z" id="e4GqntMLQ"></path><path d="M183.16 422.45L428.81 42.05L466.81 66.59L221.15 446.98L183.16 422.45Z" id="e1aaorocyg"></path><path d="M351.43 357.95L457.99 357.95L457.99 403.18L351.43 403.18L351.43 357.95Z" id="doEzJtycr"></path><path d="M412.76 260.59L458.76 260.59L458.76 403.18L412.76 403.18L412.76 260.59Z" id="cavHJ7MeU"></path></defs><g><g><g><use xlink:href="#a25jXexb" opacity="1" fill="#382bce" fill-opacity="1"></use></g><g><use xlink:href="#e3JFlD7iHr" opacity="1" fill="#382bce" fill-opacity="1"></use></g><g><use xlink:href="#e4GqntMLQ" opacity="1" fill="#382bce" fill-opacity="1"></use></g><g><use xlink:href="#e1aaorocyg" opacity="1" fill="#382bce" fill-opacity="1"></use></g><g><use xlink:href="#doEzJtycr" opacity="1" fill="#382bce" fill-opacity="1"></use></g><g><use xlink:href="#cavHJ7MeU" opacity="1" fill="#382bce" fill-opacity="1"></use></g></g></g></svg>